<?xml version="1.0" encoding="UTF-8" standalone="no"?>
<!DOCTYPE svg PUBLIC "-//W3C//DTD SVG 1.1//EN"
 "http://www.w3.org/Graphics/SVG/1.1/DTD/svg11.dtd">
<!-- Generated by graphviz version 2.38.0 (20140413.2041)
 -->
<!-- Title: %3 Pages: 1 -->
<svg width="89pt" height="188pt"
 viewBox="0.00 0.00 89.00 188.00" xmlns="http://www.w3.org/2000/svg" xmlns:xlink="http://www.w3.org/1999/xlink">
<g id="graph0" class="graph" transform="scale(1 1) rotate(0) translate(4 184)">
<title>%3</title>
<polygon fill="white" stroke="none" points="-4,4 -4,-184 85,-184 85,4 -4,4"/>
<!-- A -->
<g id="node1" class="node"><title>A</title>
<ellipse fill="none" stroke="black" cx="27" cy="-162" rx="27" ry="18"/>
<text text-anchor="middle" x="27" y="-158.3" font-family="Times New Roman,serif" font-size="14.00">A</text>
</g>
<!-- B -->
<g id="node2" class="node"><title>B</title>
<ellipse fill="none" stroke="black" cx="27" cy="-90" rx="27" ry="18"/>
<text text-anchor="middle" x="27" y="-86.3" font-family="Times New Roman,serif" font-size="14.00">B</text>
</g>
<!-- A&#45;&gt;B -->
<g id="edge1" class="edge"><title>A&#45;&gt;B</title>
<path fill="none" stroke="black" d="M21.1601,-144.411C20.2975,-136.507 20.0481,-126.852 20.4119,-117.935"/>
<polygon fill="black" stroke="black" points="23.9033,-118.179 21.1206,-107.956 16.9209,-117.683 23.9033,-118.179"/>
</g>
<!-- C -->
<g id="node3" class="node"><title>C</title>
<ellipse fill="none" stroke="black" cx="54" cy="-18" rx="27" ry="18"/>
<text text-anchor="middle" x="54" y="-14.3" font-family="Times New Roman,serif" font-size="14.00">C</text>
</g>
<!-- A&#45;&gt;C -->
<g id="edge3" class="edge"><title>A&#45;&gt;C</title>
<path fill="none" stroke="black" d="M40.7504,-146.069C48.9608,-136.1 58.619,-122.247 63,-108 69.2579,-87.6495 66.2323,-63.5715 62.0715,-45.5945"/>
<polygon fill="black" stroke="black" points="65.4307,-44.6036 59.5521,-35.7893 58.6509,-46.3457 65.4307,-44.6036"/>
</g>
<!-- B&#45;&gt;A -->
<g id="edge2" class="edge"><title>B&#45;&gt;A</title>
<path fill="none" stroke="black" d="M32.8794,-107.956C33.7139,-115.827 33.9485,-125.374 33.5831,-134.187"/>
<polygon fill="black" stroke="black" points="30.0742,-134.184 32.8399,-144.411 37.0558,-134.691 30.0742,-134.184"/>
</g>
<!-- B&#45;&gt;C -->
<g id="edge4" class="edge"><title>B&#45;&gt;C</title>
<path fill="none" stroke="black" d="M33.3986,-72.411C36.5136,-64.3352 40.3337,-54.4312 43.8346,-45.3547"/>
<polygon fill="black" stroke="black" points="47.1265,-46.5458 47.4597,-35.9562 40.5955,-44.0267 47.1265,-46.5458"/>
</g>
</g>
</svg>
