<?xml version="1.0" encoding="UTF-8" standalone="no"?>
<!DOCTYPE svg PUBLIC "-//W3C//DTD SVG 1.1//EN"
 "http://www.w3.org/Graphics/SVG/1.1/DTD/svg11.dtd">
<!-- Generated by graphviz version 2.38.0 (20140413.2041)
 -->
<!-- Title: %3 Pages: 1 -->
<svg width="151pt" height="204pt"
 viewBox="0.00 0.00 151.00 204.00" xmlns="http://www.w3.org/2000/svg" xmlns:xlink="http://www.w3.org/1999/xlink">
<g id="graph0" class="graph" transform="scale(1 1) rotate(0) translate(4 200)">
<title>%3</title>
<polygon fill="white" stroke="none" points="-4,4 -4,-200 146.997,-200 146.997,4 -4,4"/>
<!-- A -->
<g id="node1" class="node"><title>A</title>
<ellipse fill="none" stroke="black" cx="85.9965" cy="-178" rx="39.7935" ry="18"/>
<text text-anchor="middle" x="85.9965" y="-174.3" font-family="Times New Roman,serif" font-size="14.00">Node A</text>
</g>
<!-- B -->
<g id="node2" class="node"><title>B</title>
<ellipse fill="none" stroke="black" cx="38.9965" cy="-91" rx="38.9931" ry="18"/>
<text text-anchor="middle" x="38.9965" y="-87.3" font-family="Times New Roman,serif" font-size="14.00">Node B</text>
</g>
<!-- A&#45;&gt;B -->
<g id="edge1" class="edge"><title>A&#45;&gt;B</title>
<path fill="none" stroke="black" d="M72.7093,-160.824C68.3428,-155.083 63.6713,-148.444 59.9965,-142 55.7989,-134.639 51.9572,-126.274 48.74,-118.521"/>
<polygon fill="black" stroke="black" points="51.9621,-117.151 45.0191,-109.148 45.4561,-119.734 51.9621,-117.151"/>
<text text-anchor="middle" x="79.9965" y="-130.8" font-family="Times New Roman,serif" font-size="14.00">Edge 1</text>
</g>
<!-- C -->
<g id="node3" class="node"><title>C</title>
<ellipse fill="none" stroke="black" cx="88.9965" cy="-18" rx="27" ry="18"/>
<text text-anchor="middle" x="88.9965" y="-14.3" font-family="Times New Roman,serif" font-size="14.00">C</text>
</g>
<!-- A&#45;&gt;C -->
<g id="edge2" class="edge"><title>A&#45;&gt;C</title>
<path fill="none" stroke="black" d="M94.1745,-160.304C96.5427,-154.634 98.8084,-148.169 99.9965,-142 106.311,-109.211 100.871,-70.791 95.6411,-45.7289"/>
<polygon fill="black" stroke="black" points="99.0342,-44.8635 93.4477,-35.8612 92.201,-46.3824 99.0342,-44.8635"/>
<text text-anchor="middle" x="122.997" y="-87.3" font-family="Times New Roman,serif" font-size="14.00">Edge 2</text>
</g>
<!-- B&#45;&gt;C -->
<g id="edge3" class="edge"><title>B&#45;&gt;C</title>
<path fill="none" stroke="black" d="M50.5932,-73.5327C56.93,-64.5345 64.8979,-53.22 71.9311,-43.2329"/>
<polygon fill="black" stroke="black" points="74.9105,-45.0809 77.8067,-34.8896 69.1872,-41.0504 74.9105,-45.0809"/>
</g>
</g>
</svg>
