<?xml version="1.0" encoding="UTF-8" standalone="no"?>
<!DOCTYPE svg PUBLIC "-//W3C//DTD SVG 1.1//EN"
 "http://www.w3.org/Graphics/SVG/1.1/DTD/svg11.dtd">
<!-- Generated by graphviz version 2.38.0 (20140413.2041)
 -->
<!-- Title: %3 Pages: 1 -->
<svg width="178pt" height="228pt"
 viewBox="0.00 0.00 177.78 228.00" xmlns="http://www.w3.org/2000/svg" xmlns:xlink="http://www.w3.org/1999/xlink">
<g id="graph0" class="graph" transform="scale(1 1) rotate(0) translate(4 224)">
<title>%3</title>
<polygon fill="#333333" stroke="none" points="-4,4 -4,-224 173.782,-224 173.782,4 -4,4"/>
<text text-anchor="middle" x="84.8909" y="-9.2" font-family="Times New Roman,serif" font-size="16.00" fill="white">A Fancy Graph</text>
<!-- A -->
<g id="node1" class="node"><title>A</title>
<polygon fill="#006699" stroke="white" points="151.346,-44 127.064,-62 78.4995,-62 54.2173,-44 78.4995,-26 127.064,-26 151.346,-44"/>
<text text-anchor="middle" x="102.782" y="-40.3" font-family="Helvetica,sans-Serif" font-size="14.00" fill="white">Node A</text>
</g>
<!-- B -->
<g id="node2" class="node"><title>B</title>
<polygon fill="#006699" stroke="white" points="97.3463,-129 73.064,-147 24.4995,-147 0.217259,-129 24.4995,-111 73.064,-111 97.3463,-129"/>
<text text-anchor="middle" x="48.7818" y="-125.3" font-family="Helvetica,sans-Serif" font-size="14.00" fill="white">Node B</text>
</g>
<!-- A&#45;&gt;B -->
<g id="edge1" class="edge"><title>A&#45;&gt;B</title>
<path fill="none" stroke="white" stroke-dasharray="5,2" d="M87.2695,-62.2413C82.6717,-67.7301 77.797,-73.9515 73.7818,-80 69.3517,-86.6734 65.0997,-94.2251 61.3986,-101.33"/>
<polygon fill="white" stroke="white" points="56.7279,-110.618 57.2006,-99.6618 58.9744,-106.151 61.2208,-101.684 61.2208,-101.684 61.2208,-101.684 58.9744,-106.151 65.2411,-103.705 56.7279,-110.618 56.7279,-110.618"/>
<text text-anchor="middle" x="96.7818" y="-83.4" font-family="Courier,monospace" font-size="12.00" fill="white">Edge 1</text>
</g>
<!-- C -->
<g id="node3" class="node"><title>C</title>
<polygon fill="#006699" stroke="white" points="132.782,-202 119.282,-220 92.2818,-220 78.7818,-202 92.2818,-184 119.282,-184 132.782,-202"/>
<text text-anchor="middle" x="105.782" y="-198.3" font-family="Helvetica,sans-Serif" font-size="14.00" fill="white">C</text>
</g>
<!-- A&#45;&gt;C -->
<g id="edge2" class="edge"><title>A&#45;&gt;C</title>
<path fill="none" stroke="white" stroke-dasharray="5,2" d="M113.058,-62.2312C115.801,-67.7196 118.389,-73.9433 119.782,-80 127.123,-111.918 120.458,-149.503 114.046,-174.216"/>
<polygon fill="white" stroke="white" points="111.356,-183.965 109.678,-173.128 112.686,-179.145 114.016,-174.325 114.016,-174.325 114.016,-174.325 112.686,-179.145 118.354,-175.522 111.356,-183.965 111.356,-183.965"/>
<text text-anchor="middle" x="146.782" y="-125.9" font-family="Courier,monospace" font-size="12.00" fill="white">Edge 2</text>
</g>
<!-- B&#45;&gt;C -->
<g id="edge3" class="edge"><title>B&#45;&gt;C</title>
<path fill="none" stroke="white" stroke-dasharray="5,2" d="M62.5799,-147.187C69.5113,-155.821 78.0404,-166.445 85.684,-175.966"/>
<polygon fill="white" stroke="white" points="92.1107,-183.971 82.3413,-178.99 88.9805,-180.072 85.8504,-176.173 85.8504,-176.173 85.8504,-176.173 88.9805,-180.072 89.3594,-173.356 92.1107,-183.971 92.1107,-183.971"/>
</g>
</g>
</svg>
