<?xml version="1.0" encoding="UTF-8" standalone="no"?>
<!DOCTYPE svg PUBLIC "-//W3C//DTD SVG 1.1//EN"
 "http://www.w3.org/Graphics/SVG/1.1/DTD/svg11.dtd">
<!-- Generated by graphviz version 2.38.0 (20140413.2041)
 -->
<!-- Title: %3 Pages: 1 -->
<svg width="234pt" height="339pt"
 viewBox="0.00 0.00 233.50 339.00" xmlns="http://www.w3.org/2000/svg" xmlns:xlink="http://www.w3.org/1999/xlink">
<g id="graph0" class="graph" transform="scale(1 1) rotate(0) translate(4 335)">
<title>%3</title>
<polygon fill="white" stroke="none" points="-4,4 -4,-335 229.5,-335 229.5,4 -4,4"/>
<!-- A -->
<g id="node1" class="node"><title>A</title>
<ellipse fill="none" stroke="black" cx="43" cy="-313" rx="39.7935" ry="18"/>
<text text-anchor="middle" x="43" y="-309.3" font-family="Times New Roman,serif" font-size="14.00">Node A</text>
</g>
<!-- B -->
<g id="node2" class="node"><title>B</title>
<ellipse fill="none" stroke="black" cx="108" cy="-213.5" rx="38.9931" ry="18"/>
<text text-anchor="middle" x="108" y="-209.8" font-family="Times New Roman,serif" font-size="14.00">Node B</text>
</g>
<!-- A&#45;&gt;B -->
<g id="edge1" class="edge"><title>A&#45;&gt;B</title>
<path fill="none" stroke="black" d="M54.0264,-295.46C64.2665,-280.1 79.6548,-257.018 91.3834,-239.425"/>
<polygon fill="black" stroke="black" points="94.5016,-241.057 97.1365,-230.795 88.6773,-237.174 94.5016,-241.057"/>
<text text-anchor="middle" x="96" y="-265.8" font-family="Times New Roman,serif" font-size="14.00">Edge 1</text>
</g>
<!-- C -->
<g id="node3" class="node"><title>C</title>
<ellipse fill="none" stroke="black" cx="27" cy="-102.5" rx="27" ry="18"/>
<text text-anchor="middle" x="27" y="-98.8" font-family="Times New Roman,serif" font-size="14.00">C</text>
</g>
<!-- A&#45;&gt;C -->
<g id="edge2" class="edge"><title>A&#45;&gt;C</title>
<path fill="none" stroke="black" d="M35.5461,-295.069C30.0196,-281.547 22.9541,-261.954 20,-244 13.5658,-204.895 18.1009,-158.914 22.2844,-130.485"/>
<polygon fill="black" stroke="black" points="25.7587,-130.921 23.8469,-120.5 18.8429,-129.839 25.7587,-130.921"/>
<text text-anchor="middle" x="40" y="-209.8" font-family="Times New Roman,serif" font-size="14.00">Edge 2</text>
</g>
<!-- B&#45;&gt;C -->
<g id="edge3" class="edge"><title>B&#45;&gt;C</title>
<path fill="none" stroke="black" d="M95.6978,-195.945C82.0837,-177.625 60.0303,-147.948 44.5929,-127.174"/>
<polygon fill="black" stroke="black" points="47.4021,-125.087 38.6282,-119.148 41.7836,-129.262 47.4021,-125.087"/>
</g>
<!-- E -->
<g id="node5" class="node"><title>E</title>
<polygon fill="#cccccc" stroke="black" points="148.5,-132 89.5,-132 89.5,-73 148.5,-73 148.5,-132"/>
<text text-anchor="middle" x="119" y="-98.8" font-family="Times New Roman,serif" font-size="14.00">Node E</text>
</g>
<!-- B&#45;&gt;E -->
<g id="edge7" class="edge"><title>B&#45;&gt;E</title>
<path fill="none" stroke="red" d="M109.719,-195.469C111.15,-181.288 113.243,-160.548 115.079,-142.351"/>
<polygon fill="red" stroke="red" points="118.574,-142.582 116.095,-132.281 111.609,-141.879 118.574,-142.582"/>
</g>
<!-- D -->
<g id="node4" class="node"><title>D</title>
<polygon fill="#cccccc" stroke="black" points="225.5,-244 164.5,-244 164.5,-183 225.5,-183 225.5,-244"/>
<text text-anchor="middle" x="195" y="-209.8" font-family="Times New Roman,serif" font-size="14.00">Node D</text>
</g>
<!-- D&#45;&gt;E -->
<g id="edge4" class="edge"><title>D&#45;&gt;E</title>
<path fill="none" stroke="black" d="M164.403,-189.582C156.309,-182.4 148.13,-173.98 142,-165 137.202,-157.972 133.247,-149.813 130.051,-141.781"/>
<polygon fill="black" stroke="black" points="133.244,-140.321 126.523,-132.131 126.669,-142.725 133.244,-140.321"/>
<text text-anchor="middle" x="162" y="-153.8" font-family="Times New Roman,serif" font-size="14.00">Edge 3</text>
</g>
<!-- F -->
<g id="node6" class="node"><title>F</title>
<polygon fill="#cccccc" stroke="black" points="188,-36 152,-36 152,-0 188,-0 188,-36"/>
<text text-anchor="middle" x="170" y="-14.3" font-family="Times New Roman,serif" font-size="14.00">F</text>
</g>
<!-- D&#45;&gt;F -->
<g id="edge5" class="edge"><title>D&#45;&gt;F</title>
<path fill="none" stroke="black" d="M191.149,-182.69C186.345,-145.509 178.199,-82.459 173.543,-46.4264"/>
<polygon fill="black" stroke="black" points="176.971,-45.6389 172.218,-36.1698 170.029,-46.5359 176.971,-45.6389"/>
<text text-anchor="middle" x="204" y="-98.8" font-family="Times New Roman,serif" font-size="14.00">Edge 4</text>
</g>
<!-- E&#45;&gt;F -->
<g id="edge6" class="edge"><title>E&#45;&gt;F</title>
<path fill="none" stroke="black" d="M136.837,-72.6455C142.38,-63.679 148.456,-53.8511 153.875,-45.0848"/>
<polygon fill="black" stroke="black" points="156.954,-46.7606 159.235,-36.4142 151,-43.0798 156.954,-46.7606"/>
</g>
</g>
</svg>
